<svg width="16" height="16" viewBox="0 0 16 16" fill="none" xmlns="http://www.w3.org/2000/svg">
<path d="M6.92896 1.95508C7.15034 1.83707 7.40525 1.82151 7.63501 1.91016L7.73169 1.95508L11.4885 3.97559V3.97656C11.6037 4.04119 11.6799 4.16718 11.6799 4.30664C11.6799 4.45666 11.6014 4.57675 11.4973 4.63281H11.4963L7.72974 6.66016L7.72485 6.66211C7.61078 6.72504 7.46835 6.75976 7.33325 6.75977C7.23468 6.75977 7.13171 6.74125 7.03247 6.70312L6.93481 6.65918L3.17017 4.63281L3.16528 4.63086L3.09399 4.5791C3.0296 4.51714 2.98657 4.42357 2.98657 4.30664C2.98665 4.1673 3.06202 4.04027 3.177 3.97559L6.92896 1.95508Z" fill="white" stroke="white"/>
<path d="M2.00122 6.52051C2.1224 6.45169 2.24426 6.44988 2.35181 6.50488L2.35669 6.50781L5.85181 8.25098V8.25195C6.15128 8.40575 6.3529 8.68877 6.40161 9.0166L6.41333 9.15918V12.46C6.41333 12.5815 6.35274 12.6912 6.24829 12.7617C6.17697 12.8006 6.10648 12.8203 6.05298 12.8203C6.00213 12.8203 5.94479 12.8067 5.88989 12.7793L2.38989 11.0322C2.04362 10.8556 1.8334 10.5143 1.83325 10.1338V6.82715C1.83325 6.70397 1.89415 6.59083 2.00122 6.52051Z" fill="white" stroke="white"/>
<path d="M12.3147 6.50488C12.4217 6.45014 12.5428 6.4518 12.6633 6.51953C12.7716 6.58976 12.8333 6.70325 12.8333 6.82715V7.8623C12.666 7.84362 12.4987 7.83301 12.3333 7.83301C11.3145 7.83303 10.3194 8.18455 9.53149 8.81348C8.97922 9.24686 8.54935 9.79391 8.26001 10.4092V9.15332C8.26004 8.77085 8.47221 8.42787 8.8147 8.25195L8.81372 8.25098L12.3098 6.50781L12.3147 6.50488Z" fill="white" stroke="white"/>
<path d="M12.3333 9.84668C13.1178 9.84668 13.8101 10.2017 14.2649 10.7617L14.2688 10.7666C14.6217 11.1912 14.8333 11.745 14.8333 12.3467C14.8333 12.811 14.7005 13.2555 14.4719 13.6348L14.4709 13.6357C14.3373 13.8585 14.1713 14.0573 13.9807 14.2207L13.9749 14.2256C13.5365 14.614 12.967 14.8467 12.3333 14.8467C11.7399 14.8467 11.1919 14.6363 10.7659 14.2822L10.6272 14.167C10.4613 14.0138 10.316 13.8365 10.1956 13.6357L10.1946 13.6348C9.96599 13.2555 9.83325 12.811 9.83325 12.3467C9.83325 11.5559 10.1945 10.853 10.7698 10.3994L10.7737 10.3965C11.2013 10.0522 11.7446 9.84668 12.3333 9.84668ZM14.2307 10.9248C13.8584 10.5271 13.2232 10.4966 12.8186 10.874L11.926 11.6992L11.8665 11.6396C11.5021 11.2756 10.92 11.2526 10.5286 11.5713L10.4534 11.6396C10.0648 12.0282 10.0648 12.6651 10.4534 13.0537L11.1926 13.7939C11.3913 13.9926 11.6476 14.0868 11.8997 14.0869C12.1412 14.0869 12.3905 13.9954 12.5793 13.8203L14.175 12.3447C14.5912 11.9688 14.6141 11.3336 14.2317 10.9248H14.2307Z" fill="white" stroke="white"/>
</svg>
