<svg width="33" height="32" viewBox="0 0 33 32" fill="none" xmlns="http://www.w3.org/2000/svg">
<path d="M23.9933 14.3332C23.42 14.3332 22.9667 13.8666 22.9667 13.3066C22.9667 12.8132 22.4733 11.7866 21.6467 10.8932C20.8333 10.0266 19.94 9.51989 19.1933 9.51989C18.62 9.51989 18.1667 9.05322 18.1667 8.49322C18.1667 7.93322 18.6333 7.46655 19.1933 7.46655C20.5267 7.46655 21.9267 8.18655 23.1533 9.47989C24.3 10.6932 25.0333 12.1999 25.0333 13.2932C25.0333 13.8666 24.5667 14.3332 23.9933 14.3332Z" fill="#FE7839"/>
<path d="M28.8067 14.3334C28.2333 14.3334 27.78 13.8667 27.78 13.3067C27.78 8.57341 23.9267 4.73341 19.2067 4.73341C18.6333 4.73341 18.18 4.26675 18.18 3.70675C18.18 3.14675 18.6333 2.66675 19.1933 2.66675C25.06 2.66675 29.8333 7.44008 29.8333 13.3067C29.8333 13.8667 29.3667 14.3334 28.8067 14.3334Z" fill="#FE7839"/>
<path opacity="0.4" d="M16.22 18.9467L11.86 23.3067C11.38 22.8801 10.9133 22.4401 10.46 21.9867C9.08667 20.6001 7.84667 19.1467 6.74 17.6267C5.64667 16.1067 4.76667 14.5867 4.12667 13.0801C3.48667 11.5601 3.16667 10.1067 3.16667 8.72008C3.16667 7.81341 3.32667 6.94675 3.64667 6.14675C3.96667 5.33342 4.47333 4.58675 5.18 3.92008C6.03333 3.08008 6.96667 2.66675 7.95333 2.66675C8.32667 2.66675 8.7 2.74675 9.03333 2.90675C9.38 3.06675 9.68667 3.30675 9.92667 3.65341L13.02 8.01342C13.26 8.34675 13.4333 8.65341 13.5533 8.94675C13.6733 9.22675 13.74 9.50675 13.74 9.76008C13.74 10.0801 13.6467 10.4001 13.46 10.7067C13.2867 11.0134 13.0333 11.3334 12.7133 11.6534L11.7 12.7067C11.5533 12.8534 11.4867 13.0267 11.4867 13.2401C11.4867 13.3467 11.5 13.4401 11.5267 13.5467C11.5667 13.6534 11.6067 13.7334 11.6333 13.8134C11.8733 14.2534 12.2867 14.8267 12.8733 15.5201C13.4733 16.2134 14.1133 16.9201 14.8067 17.6267C15.2867 18.0934 15.7533 18.5467 16.22 18.9467Z" fill="#FE7839"/>
<path d="M29.7933 24.44C29.7933 24.8133 29.7267 25.2 29.5933 25.5733C29.5533 25.68 29.5133 25.7866 29.46 25.8933C29.2333 26.3733 28.94 26.8266 28.5533 27.2533C27.9 27.9733 27.18 28.4933 26.3667 28.8266C26.3533 28.8266 26.34 28.84 26.3267 28.84C25.54 29.16 24.6867 29.3333 23.7667 29.3333C22.4067 29.3333 20.9533 29.0133 19.42 28.36C17.8867 27.7066 16.3533 26.8266 14.8333 25.72C14.3133 25.3333 13.7933 24.9466 13.3 24.5333L17.66 20.1733C18.0333 20.4533 18.3667 20.6666 18.6467 20.8133C18.7133 20.84 18.7933 20.88 18.8867 20.92C18.9933 20.96 19.1 20.9733 19.22 20.9733C19.4467 20.9733 19.62 20.8933 19.7667 20.7466L20.78 19.7466C21.1133 19.4133 21.4333 19.16 21.74 19C22.0467 18.8133 22.3533 18.72 22.6867 18.72C22.94 18.72 23.2067 18.7733 23.5 18.8933C23.7933 19.0133 24.1 19.1866 24.4333 19.4133L28.8467 22.5466C29.1933 22.7866 29.4333 23.0666 29.58 23.4C29.7133 23.7333 29.7933 24.0666 29.7933 24.44Z" fill="#FE7839"/>
</svg>
