<svg width="25" height="24" viewBox="0 0 25 24" fill="none" xmlns="http://www.w3.org/2000/svg">
<path d="M9.56 2L5.94 5.63" stroke="#959FC5" stroke-width="1.5" stroke-miterlimit="10" stroke-linecap="round" stroke-linejoin="round"/>
<path d="M15.94 2L19.56 5.63" stroke="#959FC5" stroke-width="1.5" stroke-miterlimit="10" stroke-linecap="round" stroke-linejoin="round"/>
<path d="M2.75 7.8501C2.75 6.0001 3.74 5.8501 4.97 5.8501H20.53C21.76 5.8501 22.75 6.0001 22.75 7.8501C22.75 10.0001 21.76 9.8501 20.53 9.8501H4.97C3.74 9.8501 2.75 10.0001 2.75 7.8501Z" stroke="#959FC5" stroke-width="1.5"/>
<path d="M10.51 14V17.55" stroke="#959FC5" stroke-width="1.5" stroke-linecap="round"/>
<path d="M15.11 14V17.55" stroke="#959FC5" stroke-width="1.5" stroke-linecap="round"/>
<path d="M4.25 10L5.66 18.64C5.98 20.58 6.75 22 9.61 22H15.64C18.75 22 19.21 20.64 19.57 18.76L21.25 10" stroke="#959FC5" stroke-width="1.5" stroke-linecap="round"/>
</svg>
