<svg width="20" height="20" viewBox="0 0 20 20" fill="none" xmlns="http://www.w3.org/2000/svg">
<path d="M10.9917 5H5.65841C5.44175 5 5.23341 5.00833 5.03341 5.03333C2.79175 5.225 1.66675 6.55 1.66675 8.99167V12.325C1.66675 15.6583 3.00008 16.3167 5.65841 16.3167H5.99175C6.17508 16.3167 6.41675 16.4417 6.52508 16.5833L7.52508 17.9167C7.96675 18.5083 8.68341 18.5083 9.12508 17.9167L10.1251 16.5833C10.2501 16.4167 10.4501 16.3167 10.6584 16.3167H10.9917C13.4334 16.3167 14.7584 15.2 14.9501 12.95C14.9751 12.75 14.9834 12.5417 14.9834 12.325V8.99167C14.9834 6.33333 13.6501 5 10.9917 5ZM5.41675 11.6667C4.95008 11.6667 4.58341 11.2917 4.58341 10.8333C4.58341 10.375 4.95841 10 5.41675 10C5.87508 10 6.25008 10.375 6.25008 10.8333C6.25008 11.2917 5.87508 11.6667 5.41675 11.6667ZM8.32508 11.6667C7.85841 11.6667 7.49175 11.2917 7.49175 10.8333C7.49175 10.375 7.86675 10 8.32508 10C8.78341 10 9.15841 10.375 9.15841 10.8333C9.15841 11.2917 8.79175 11.6667 8.32508 11.6667ZM11.2417 11.6667C10.7751 11.6667 10.4084 11.2917 10.4084 10.8333C10.4084 10.375 10.7834 10 11.2417 10C11.7001 10 12.0751 10.375 12.0751 10.8333C12.0751 11.2917 11.7001 11.6667 11.2417 11.6667Z" fill="white"/>
<path d="M18.3167 5.65866V8.99199C18.3167 10.6587 17.8 11.792 16.7667 12.417C16.5167 12.567 16.225 12.367 16.225 12.0753L16.2334 8.99199C16.2334 5.65866 14.325 3.75033 10.9917 3.75033L5.91671 3.75866C5.62504 3.75866 5.42504 3.46699 5.57504 3.21699C6.20004 2.18366 7.33338 1.66699 8.99171 1.66699H14.325C16.9834 1.66699 18.3167 3.00033 18.3167 5.65866Z" fill="white"/>
</svg>
