<svg width="20" height="20" viewBox="0 0 20 20" fill="none" xmlns="http://www.w3.org/2000/svg">
<path d="M16.6663 14.7072C16.5781 15.4197 16.5393 15.7284 16.2102 16.423L11.1575 17.4669C11.2736 16.7163 11.4293 16.1375 11.6809 15.7902L16.6663 14.7072ZM9.62817 9.79309L11.1389 9.46497V4.69446C11.7014 4.06311 12.0469 3.77941 12.7258 3.42102V9.12024L16.6663 8.26575C16.5782 8.97822 16.5393 9.28697 16.2102 9.98157L12.7258 10.7179V12.3204L16.6663 11.4865C16.5781 12.199 16.5392 12.5077 16.2102 13.2023L12.7258 13.922V13.9376L11.1389 14.2657V11.0538L9.62817 11.3732V13.3966L9.60181 13.4015C9.25453 14.0104 8.76477 14.7423 8.29224 15.3263L3.33325 16.2706C3.37772 15.6327 3.47062 15.2735 3.75903 14.631L8.04126 13.7023V11.7081L4.07251 12.548C4.11698 11.9099 4.20974 11.5501 4.49829 10.9073L8.04126 10.1368V3.80676C8.60371 3.17542 8.9493 2.89169 9.62817 2.53333V9.79309Z" fill="#FF9D61"/>
</svg>
