<svg width="14" height="14" viewBox="0 0 14 14" fill="none" xmlns="http://www.w3.org/2000/svg">
<path fill-rule="evenodd" clip-rule="evenodd" d="M4.70498 3.51473C3.62435 4.25038 2.91667 5.48989 2.91667 6.89285C2.91667 9.14801 4.74484 10.9762 7 10.9762C8.40296 10.9762 9.64247 10.2685 10.3781 9.18788C7.39768 8.86206 5.03079 6.49517 4.70498 3.51473ZM11.0833 8.05952C11.5885 8.05952 12.0236 8.50476 11.8236 8.9687C11.0191 10.8358 9.16217 12.1429 7 12.1429C4.10051 12.1429 1.75 9.79235 1.75 6.89285C1.75 4.73068 3.05706 2.87379 4.92415 2.06922C5.3881 1.86929 5.83333 2.30433 5.83333 2.80952C5.83333 5.70902 8.18384 8.05952 11.0833 8.05952Z" fill="#1E475C"/>
</svg>
