<svg width="16" height="16" viewBox="0 0 16 16" fill="none" xmlns="http://www.w3.org/2000/svg">
<path d="M5.33301 1.83301H10.667C11.7381 1.83307 12.4209 2.13664 12.8418 2.58984C13.2689 3.0498 13.4999 3.74283 13.5 4.66602V11.333C13.5 12.2563 13.2689 12.9492 12.8418 13.4092C12.4209 13.8624 11.7382 14.166 10.667 14.166H5.33301C4.26183 14.166 3.57908 13.8624 3.1582 13.4092C2.7311 12.9492 2.5 12.2563 2.5 11.333V4.66602C2.50005 3.74283 2.7311 3.0498 3.1582 2.58984C3.57909 2.13664 4.26191 1.83307 5.33301 1.83301ZM5.33301 10.333C4.78368 10.3332 4.33301 10.7836 4.33301 11.333C4.33301 11.8824 4.78368 12.3328 5.33301 12.333H10.667C11.2163 12.3328 11.667 11.8824 11.667 11.333C11.667 10.7836 11.2163 10.3332 10.667 10.333H5.33301ZM5.33301 7.66602C4.78379 7.66619 4.33319 8.1168 4.33301 8.66602C4.33301 9.21538 4.78368 9.66584 5.33301 9.66602H8C8.54948 9.66602 9 9.21549 9 8.66602C8.99982 8.11669 8.54937 7.66602 8 7.66602H5.33301ZM9.66699 2C9.11752 2 8.66699 2.45052 8.66699 3V4.33301C8.66699 5.62248 9.71052 6.66602 11 6.66602H12.333C12.8825 6.66602 13.333 6.21549 13.333 5.66602C13.3328 5.11669 12.8824 4.66602 12.333 4.66602H11C10.8161 4.66602 10.667 4.51687 10.667 4.33301V3C10.667 2.45063 10.2163 2.00018 9.66699 2Z" fill="white" stroke="white"/>
</svg>
