<svg width="24" height="24" viewBox="0 0 24 24" fill="none" xmlns="http://www.w3.org/2000/svg">
<path opacity="0.4" d="M8.07031 2.5H12.3096C12.5834 2.5 12.8096 2.72614 12.8096 3V5.88965C12.8096 8.53579 14.9642 10.6904 17.6104 10.6904H20.5C20.7739 10.6904 21 10.9166 21 11.1904V16.4297C21 18.092 20.4235 19.3478 19.5273 20.1895C18.6262 21.0356 17.3624 21.5 15.9297 21.5H8.07031C6.63757 21.5 5.37377 21.0356 4.47266 20.1895C3.57648 19.3478 3 18.092 3 16.4297V7.57031C3 5.90797 3.57648 4.65225 4.47266 3.81055C5.37377 2.96436 6.63757 2.5 8.07031 2.5Z" fill="#959FC5" stroke="#959FC5"/>
<path d="M15.2688 2.52783C15.3321 2.50292 15.3966 2.51408 15.4465 2.56396C16.9259 4.0433 19.5039 6.65042 20.9456 8.10205L20.9465 8.104C20.9721 8.12964 20.9792 8.15046 20.9817 8.16553C20.9846 8.18358 20.9832 8.20747 20.9719 8.23291C20.9499 8.28258 20.9031 8.31969 20.8303 8.31982C19.6994 8.31982 18.3816 8.32002 17.4348 8.31006H17.4299C16.1829 8.31006 15.18 7.31085 15.1799 6.14014V2.6499C15.1799 2.61538 15.1897 2.59366 15.2014 2.57764C15.215 2.5592 15.2375 2.54025 15.2688 2.52783Z" fill="#959FC5" stroke="#959FC5"/>
<path d="M8.99561 10.75C9.02212 10.7534 9.04097 10.7556 9.05811 10.7588C9.07826 10.7626 9.08858 10.7664 9.09424 10.7686L9.10889 10.7734L9.15674 10.8037C9.17163 10.819 9.1842 10.8334 9.19678 10.8438L11.1763 12.8232C11.271 12.918 11.271 13.082 11.1763 13.1768C11.125 13.2279 11.064 13.25 10.9995 13.25C10.9352 13.2499 10.8748 13.2277 10.8237 13.1768L9.24951 11.6025V17C9.24951 17.1339 9.13337 17.25 8.99951 17.25C8.86584 17.2498 8.74951 17.1337 8.74951 17V11.6025L7.896 12.4561L7.17627 13.1768C7.08159 13.2712 6.91844 13.2712 6.82373 13.1768C6.72899 13.082 6.72899 12.918 6.82373 12.8232L8.8374 10.8096L8.84912 10.7949C8.83776 10.8082 8.83122 10.8124 8.84033 10.8066C8.84507 10.8036 8.8523 10.7986 8.86475 10.792L8.92139 10.7637C8.93124 10.7604 8.93995 10.7572 8.94775 10.7549L8.96729 10.75H8.99561Z" fill="#959FC5" stroke="#959FC5"/>
</svg>
