<svg width="33" height="32" viewBox="0 0 33 32" fill="none" xmlns="http://www.w3.org/2000/svg">
<path opacity="0.4" d="M23.1667 27.3334H9.83334C5.83334 27.3334 3.16667 25.3334 3.16667 20.6667V11.3334C3.16667 6.66675 5.83334 4.66675 9.83334 4.66675H23.1667C27.1667 4.66675 29.8333 6.66675 29.8333 11.3334V20.6667C29.8333 25.3334 27.1667 27.3334 23.1667 27.3334Z" fill="#7B83B6"/>
<path d="M16.5 17.16C15.38 17.16 14.2467 16.8133 13.38 16.1066L9.20667 12.7733C8.78 12.4266 8.70001 11.8 9.04668 11.3733C9.39334 10.9466 10.02 10.8666 10.4467 11.2133L14.62 14.5466C15.6333 15.36 17.3533 15.36 18.3667 14.5466L22.54 11.2133C22.9667 10.8666 23.6067 10.9333 23.94 11.3733C24.2867 11.8 24.22 12.44 23.78 12.7733L19.6067 16.1066C18.7533 16.8133 17.62 17.16 16.5 17.16Z" fill="#7B83B6"/>
</svg>
