<svg width="56" height="56" viewBox="0 0 56 56" fill="none" xmlns="http://www.w3.org/2000/svg">
<path opacity="0.4" d="M34.1158 5.48584C34.5792 5.04547 35.2901 5.05768 35.7194 5.48682L43.7526 13.52H44.8932C45.9486 13.52 47.4291 13.5287 48.65 14.2036C49.2468 14.5336 49.784 15.0256 50.1764 15.772C50.5713 16.5233 50.8336 17.5592 50.8336 18.9927C50.8336 20.8965 50.4691 22.1137 49.9293 22.8979C49.4005 23.6661 48.6628 24.0772 47.775 24.2905C47.1682 24.4205 46.5297 24.4663 45.8268 24.4663H10.1735C9.47795 24.4663 8.80573 24.4418 8.19104 24.2935L8.18323 24.2925L7.94104 24.231C7.38392 24.0739 6.88926 23.8156 6.47424 23.3833L6.46643 23.3765L6.31311 23.2124C5.56791 22.3629 5.16663 21.0615 5.16663 18.9927C5.16668 17.5594 5.42872 16.5242 5.82385 15.7729C6.2165 15.0265 6.75405 14.5346 7.35217 14.2046C8.57593 13.5294 10.062 13.52 11.1295 13.52H12.2711L12.4176 13.3726L20.274 5.49268C20.7358 5.04778 21.447 5.05586 21.8785 5.48291C22.3229 5.94612 22.3137 6.65878 21.8834 7.08936L15.4528 13.52H40.5475L34.1227 7.09521C33.6767 6.63197 33.6858 5.91787 34.1168 5.48682L34.1158 5.48584Z" fill="#959FC5" stroke="#959FC5"/>
<path d="M43.8888 42.8843V42.8862C43.4695 45.0877 42.9277 47.0455 41.5968 48.4683C40.2862 49.8693 38.1263 50.8335 34.2765 50.8335H21.1866C17.4081 50.8335 15.1771 49.7146 13.8029 48.187C12.4105 46.6393 11.8291 44.5985 11.507 42.6196V42.6187L8.67981 25.3931C9.18777 25.455 9.69633 25.4663 10.173 25.4663H45.8497C46.3223 25.4663 46.803 25.4448 47.2755 25.3882L43.8888 42.8843ZM23.1232 30.2065C21.9373 30.2066 20.9906 31.1535 20.9904 32.3394V40.0396C20.9904 41.2256 21.9371 42.1732 23.1232 42.1733C24.3093 42.1733 25.257 41.2257 25.257 40.0396V32.3394C25.2567 31.1534 24.3092 30.2065 23.1232 30.2065ZM33.1105 30.2065C31.9245 30.2065 30.9769 31.1534 30.9767 32.3394V40.0396C30.9767 41.2257 31.9243 42.1733 33.1105 42.1733C34.2964 42.1731 35.2433 41.2255 35.2433 40.0396V32.3394C35.2431 31.1536 34.2963 30.2068 33.1105 30.2065Z" fill="#959FC5" stroke="#959FC5"/>
</svg>
