<svg width="48" height="48" viewBox="0 0 48 48" fill="none" xmlns="http://www.w3.org/2000/svg">
<path d="M27.4598 7.02027L30.9798 14.0603C31.4598 15.0403 32.7398 15.9803 33.8198 16.1603L40.1998 17.2203C44.2798 17.9003 45.2398 20.8603 42.2998 23.7803L37.3398 28.7403C36.4998 29.5803 36.0398 31.2003 36.2998 32.3603L37.7198 38.5003C38.8398 43.3603 36.2598 45.2403 31.9598 42.7003L25.9798 39.1603C24.8998 38.5203 23.1198 38.5203 22.0198 39.1603L16.0398 42.7003C11.7598 45.2403 9.15982 43.3403 10.2798 38.5003L11.6998 32.3603C11.9598 31.2003 11.4998 29.5803 10.6598 28.7403L5.69982 23.7803C2.77982 20.8603 3.71982 17.9003 7.79982 17.2203L14.1798 16.1603C15.2398 15.9803 16.5198 15.0403 16.9998 14.0603L20.5198 7.02027C22.4398 3.20027 25.5598 3.20027 27.4598 7.02027Z" fill="#FF9D61" stroke="#FF9D61" stroke-width="1.5" stroke-linecap="round" stroke-linejoin="round"/>
</svg>
