<svg width="56" height="57" viewBox="0 0 56 57" fill="none" xmlns="http://www.w3.org/2000/svg">
<path opacity="0.4" d="M46.0964 24.3334V42.5004C46.0964 45.9722 45.5117 48.1278 44.2019 49.4379C42.8919 50.7479 40.7357 51.3334 37.2634 51.3334H18.5964C15.1243 51.3333 12.9689 50.7479 11.6589 49.4379C10.3489 48.1279 9.76346 45.9725 9.76343 42.5004V24.3334H46.0964Z" fill="#B7BFD9" stroke="#B7BFD9"/>
<path d="M10.5002 12.6666H45.5002C47.1086 12.6667 48.122 13.1549 48.7424 13.8658C49.3737 14.5894 49.6663 15.622 49.6663 16.8336V19.1666C49.6663 20.3782 49.3736 21.4099 48.7424 22.1334C48.1221 22.8445 47.1089 23.3336 45.5002 23.3336H10.5002C8.8155 23.3336 7.80729 22.8416 7.20825 22.1383C6.5962 21.4196 6.33325 20.3904 6.33325 19.1666V16.8336L6.34595 16.3834C6.40471 15.357 6.67287 14.4907 7.20825 13.8619C7.80729 13.1586 8.8155 12.6666 10.5002 12.6666Z" fill="#B7BFD9" stroke="#B7BFD9"/>
<path opacity="0.4" d="M27.1599 12.1667H14.2799C13.4866 11.3033 13.5099 9.97332 14.3499 9.13332L17.6632 5.81999C18.5266 4.95665 19.9499 4.95665 20.8132 5.81999L27.1599 12.1667Z" fill="#B7BFD9"/>
<path opacity="0.4" d="M41.6967 12.1667H28.8167L35.1633 5.81999C36.0266 4.95665 37.45 4.95665 38.3133 5.81999L41.6267 9.13332C42.4667 9.97332 42.49 11.3033 41.6967 12.1667Z" fill="#B7BFD9"/>
<path opacity="0.6" d="M20.8601 23.8334V35.8267C20.8601 37.6934 22.9134 38.79 24.4768 37.7867L26.6701 36.34C27.4634 35.8267 28.4668 35.8267 29.2368 36.34L31.3134 37.74C32.8534 38.7667 34.9301 37.67 34.9301 35.8034V23.8334H20.8601Z" fill="#B7BFD9"/>
</svg>
