<svg width="21" height="20" viewBox="0 0 21 20" fill="none" xmlns="http://www.w3.org/2000/svg">
<path d="M17.1668 10.0003V15.0003C17.1668 16.842 15.6752 18.3337 13.8335 18.3337H7.16683C5.32516 18.3337 3.8335 16.842 3.8335 15.0003V10.0003C3.8335 9.54199 4.2085 9.16699 4.66683 9.16699H6.3085C6.76683 9.16699 7.14183 9.54199 7.14183 10.0003V12.617C7.14183 13.2337 7.4835 13.8003 8.02516 14.092C8.26683 14.2253 8.5335 14.292 8.8085 14.292C9.12516 14.292 9.44183 14.2003 9.71683 14.017L10.5085 13.5003L11.2418 13.992C11.7502 14.3337 12.4002 14.3753 12.9418 14.0837C13.4918 13.792 13.8335 13.2337 13.8335 12.6087V10.0003C13.8335 9.54199 14.2085 9.16699 14.6668 9.16699H16.3335C16.7918 9.16699 17.1668 9.54199 17.1668 10.0003Z" fill="white"/>
<path d="M4.25049 4.66699H16.7505C17.2566 4.66706 17.5205 4.818 17.6665 4.98535C17.8232 5.16515 17.9165 5.44757 17.9165 5.83398V6.66699C17.9165 7.05354 17.8233 7.33583 17.6665 7.51562C17.5205 7.68298 17.2566 7.83392 16.7505 7.83398H4.25049C3.71328 7.83398 3.45575 7.67909 3.31982 7.51953C3.17084 7.34461 3.0835 7.0658 3.0835 6.66699V5.83398C3.0835 5.43518 3.17084 5.15539 3.31982 4.98047C3.45583 4.82104 3.7137 4.66699 4.25049 4.66699Z" fill="white" stroke="white"/>
<path d="M10.2 4.16686H5.59998C5.31665 3.85853 5.32498 3.38353 5.62498 3.08353L6.80832 1.9002C7.11665 1.59186 7.62498 1.59186 7.93332 1.9002L10.2 4.16686Z" fill="white"/>
<path d="M15.3915 4.16686H10.7915L13.0582 1.9002C13.3665 1.59186 13.8748 1.59186 14.1832 1.9002L15.3665 3.08353C15.6665 3.38353 15.6748 3.85853 15.3915 4.16686Z" fill="white"/>
<path d="M12.1419 9.16699C12.6002 9.16699 12.9752 9.54199 12.9752 10.0003V12.6087C12.9752 13.2753 12.2335 13.6753 11.6835 13.3003L10.9335 12.8003C10.6585 12.617 10.3002 12.617 10.0169 12.8003L9.23353 13.317C8.68353 13.6837 7.9502 13.2837 7.9502 12.6253V10.0003C7.9502 9.54199 8.3252 9.16699 8.78353 9.16699H12.1419Z" fill="white"/>
</svg>
