<svg width="25" height="24" viewBox="0 0 25 24" fill="none" xmlns="http://www.w3.org/2000/svg">
<path opacity="0.4" d="M9.84644 3.31494C11.0996 2.34421 13.0845 2.23606 14.4734 3.02881L14.7429 3.19971L20.5037 7.22998C20.9727 7.55844 21.4165 8.09711 21.7439 8.72412C22.0713 9.3513 22.2595 10.0244 22.2595 10.6001V17.3804C22.2594 19.654 20.414 21.5003 18.1404 21.5005H7.36011C5.0878 21.5005 3.24022 19.6457 3.23999 17.3706V10.4702L3.2478 10.2651C3.28449 9.7765 3.44782 9.22084 3.70874 8.69092C4.00678 8.08564 4.41124 7.55672 4.83765 7.22412L9.84644 3.31494Z" fill="#FE7839" stroke="#FE7839"/>
<path d="M12.75 14.75C12.8839 14.75 13 14.8661 13 15V18C13 18.1339 12.8839 18.25 12.75 18.25C12.6161 18.25 12.5 18.1339 12.5 18V15C12.5 14.8661 12.6161 14.75 12.75 14.75Z" fill="#FE7839" stroke="#FE7839"/>
</svg>
