<svg width="14" height="14" viewBox="0 0 14 14" fill="none" xmlns="http://www.w3.org/2000/svg">
<g clip-path="url(#clip0_1143_3718)">
<path fill-rule="evenodd" clip-rule="evenodd" d="M7 10.5C8.933 10.5 10.5 8.933 10.5 7C10.5 5.067 8.933 3.5 7 3.5C5.067 3.5 3.5 5.067 3.5 7C3.5 8.933 5.067 10.5 7 10.5Z" fill="#FE7839"/>
<path fill-rule="evenodd" clip-rule="evenodd" d="M6.9972 0.875C7.31937 0.875 7.58053 1.13617 7.58053 1.45833V2.04167C7.58053 2.36383 7.31937 2.625 6.9972 2.625C6.67503 2.625 6.41387 2.36383 6.41387 2.04167V1.45833C6.41387 1.13617 6.67503 0.875 6.9972 0.875Z" fill="#FE7839"/>
<path fill-rule="evenodd" clip-rule="evenodd" d="M6.9972 11.375C7.31937 11.375 7.58053 11.6362 7.58053 11.9583V12.5398C7.58053 12.862 7.31937 13.1231 6.9972 13.1231C6.67503 13.1231 6.41387 12.862 6.41387 12.5398V11.9583C6.41387 11.6362 6.67503 11.375 6.9972 11.375Z" fill="#FE7839"/>
<path fill-rule="evenodd" clip-rule="evenodd" d="M0.873138 6.99906C0.873138 6.67689 1.13431 6.41573 1.45647 6.41573H2.03981C2.36197 6.41573 2.62314 6.67689 2.62314 6.99906C2.62314 7.32123 2.36197 7.58239 2.03981 7.58239H1.45647C1.13431 7.58239 0.873138 7.32123 0.873138 6.99906Z" fill="#FE7839"/>
<path fill-rule="evenodd" clip-rule="evenodd" d="M11.3731 6.99906C11.3731 6.67689 11.6343 6.41573 11.9565 6.41573H12.5379C12.8601 6.41573 13.1213 6.67689 13.1213 6.99906C13.1213 7.32123 12.8601 7.58239 12.5379 7.58239H11.9565C11.6343 7.58239 11.3731 7.32123 11.3731 6.99906Z" fill="#FE7839"/>
<path fill-rule="evenodd" clip-rule="evenodd" d="M2.66689 11.3294C2.43909 11.1016 2.43909 10.7323 2.66689 10.5045L3.07937 10.092C3.30718 9.86418 3.67652 9.86418 3.90433 10.092C4.13213 10.3198 4.13213 10.6891 3.90433 10.9169L3.49185 11.3294C3.26404 11.5572 2.8947 11.5572 2.66689 11.3294Z" fill="#FE7839"/>
<path fill-rule="evenodd" clip-rule="evenodd" d="M10.0915 3.9048C9.86371 3.67699 9.86371 3.30765 10.0915 3.07984L10.5027 2.66869C10.7305 2.44089 11.0998 2.44089 11.3276 2.66869C11.5554 2.8965 11.5554 3.26584 11.3276 3.49365L10.9165 3.9048C10.6887 4.13261 10.3193 4.13261 10.0915 3.9048Z" fill="#FE7839"/>
<path fill-rule="evenodd" clip-rule="evenodd" d="M2.66689 2.66869C2.8947 2.44089 3.26404 2.44089 3.49185 2.66869L3.90433 3.08117C4.13213 3.30898 4.13213 3.67832 3.90433 3.90613C3.67652 4.13394 3.30718 4.13394 3.07937 3.90613L2.66689 3.49365C2.43909 3.26584 2.43909 2.8965 2.66689 2.66869Z" fill="#FE7839"/>
<path fill-rule="evenodd" clip-rule="evenodd" d="M10.0915 10.0933C10.3193 9.86551 10.6887 9.86551 10.9165 10.0933L11.3276 10.5045C11.5554 10.7323 11.5554 11.1016 11.3276 11.3294C11.0998 11.5572 10.7305 11.5572 10.5027 11.3294L10.0915 10.9183C9.86371 10.6905 9.86371 10.3211 10.0915 10.0933Z" fill="#FE7839"/>
</g>
<defs>
<clipPath id="clip0_1143_3718">
<rect width="14" height="14" fill="white"/>
</clipPath>
</defs>
</svg>
