<svg width="20" height="20" viewBox="0 0 20 20" fill="none" xmlns="http://www.w3.org/2000/svg">
<path d="M16.7001 5.68324L11.9001 2.32491C10.5918 1.40824 8.58345 1.45824 7.32511 2.43324L3.15011 5.69157C2.31678 6.34157 1.65845 7.67491 1.65845 8.72491V14.4749C1.65845 16.5999 3.38345 18.3332 5.50845 18.3332H14.4918C16.6168 18.3332 18.3418 16.6082 18.3418 14.4832V8.83324C18.3418 7.70824 17.6168 6.32491 16.7001 5.68324ZM10.6251 14.9999C10.6251 15.3416 10.3418 15.6249 10.0001 15.6249C9.65845 15.6249 9.37511 15.3416 9.37511 14.9999V12.4999C9.37511 12.1582 9.65845 11.8749 10.0001 11.8749C10.3418 11.8749 10.6251 12.1582 10.6251 12.4999V14.9999Z" fill="white"/>
</svg>
