<svg width="24" height="24" viewBox="0 0 24 24" fill="none" xmlns="http://www.w3.org/2000/svg">
<path opacity="0.4" d="M17 18.4297H13L8.54999 21.3897C7.88999 21.8297 7 21.3597 7 20.5597V18.4297C4 18.4297 2 16.4297 2 13.4297V7.42969C2 4.42969 4 2.42969 7 2.42969H17C20 2.42969 22 4.42969 22 7.42969V13.4297C22 16.4297 20 18.4297 17 18.4297Z" fill="#369AC1"/>
<path d="M12 12.1104C11.59 12.1104 11.25 11.7704 11.25 11.3604V11.1504C11.25 9.99039 12.1 9.42038 12.42 9.20038C12.79 8.95038 12.91 8.78039 12.91 8.52039C12.91 8.02039 12.5 7.61035 12 7.61035C11.5 7.61035 11.09 8.02039 11.09 8.52039C11.09 8.93039 10.75 9.27039 10.34 9.27039C9.93003 9.27039 9.59003 8.93039 9.59003 8.52039C9.59003 7.19039 10.67 6.11035 12 6.11035C13.33 6.11035 14.41 7.19039 14.41 8.52039C14.41 9.66039 13.57 10.2304 13.26 10.4404C12.87 10.7004 12.75 10.8704 12.75 11.1504V11.3604C12.75 11.7804 12.41 12.1104 12 12.1104Z" fill="#369AC1"/>
<path d="M12 14.5996C11.58 14.5996 11.25 14.2596 11.25 13.8496C11.25 13.4396 11.59 13.0996 12 13.0996C12.41 13.0996 12.75 13.4396 12.75 13.8496C12.75 14.2596 12.42 14.5996 12 14.5996Z" fill="#369AC1"/>
</svg>
