<svg width="20" height="20" viewBox="0 0 20 20" fill="none" xmlns="http://www.w3.org/2000/svg">
<path d="M4.16667 8.3335C3.25 8.3335 2.5 9.0835 2.5 10.0002C2.5 10.9168 3.25 11.6668 4.16667 11.6668C5.08333 11.6668 5.83333 10.9168 5.83333 10.0002C5.83333 9.0835 5.08333 8.3335 4.16667 8.3335Z" stroke="#434465" stroke-width="1.5"/>
<path d="M15.8334 8.3335C14.9167 8.3335 14.1667 9.0835 14.1667 10.0002C14.1667 10.9168 14.9167 11.6668 15.8334 11.6668C16.7501 11.6668 17.5001 10.9168 17.5001 10.0002C17.5001 9.0835 16.7501 8.3335 15.8334 8.3335Z" stroke="#434465" stroke-width="1.5"/>
<path d="M9.99992 8.3335C9.08325 8.3335 8.33325 9.0835 8.33325 10.0002C8.33325 10.9168 9.08325 11.6668 9.99992 11.6668C10.9166 11.6668 11.6666 10.9168 11.6666 10.0002C11.6666 9.0835 10.9166 8.3335 9.99992 8.3335Z" stroke="#434465" stroke-width="1.5"/>
</svg>
