<svg width="24" height="24" viewBox="0 0 24 24" fill="none" xmlns="http://www.w3.org/2000/svg">
<path opacity="0.4" d="M20.4 16.3298C20.12 17.0798 19.53 17.6498 18.76 17.9098C17.68 18.2698 16.57 18.5398 15.45 18.7298C15.34 18.7498 15.23 18.7698 15.12 18.7798C14.94 18.8098 14.76 18.8298 14.58 18.8498C14.36 18.8798 14.13 18.8998 13.9 18.9198C13.27 18.9698 12.65 18.9998 12.02 18.9998C11.38 18.9998 10.74 18.9698 10.11 18.9098C9.84 18.8898 9.58 18.8598 9.32 18.8198C9.17 18.7998 9.02 18.7798 8.88 18.7598C8.77 18.7398 8.66 18.7298 8.55 18.7098C7.44 18.5298 6.34 18.2598 5.27 17.8998C4.47 17.6298 3.86 17.0598 3.59 16.3298C3.32 15.6098 3.42 14.7698 3.85 14.0498L4.98 12.1698C5.22 11.7598 5.44 10.9698 5.44 10.4898V8.6298C5.44 4.9998 8.39 2.0498 12.02 2.0498C15.64 2.0498 18.59 4.9998 18.59 8.6298V10.4898C18.59 10.9698 18.81 11.7598 19.06 12.1698L20.19 14.0498C20.6 14.7498 20.68 15.5698 20.4 16.3298Z" fill="#369AC1"/>
<path d="M12 10.7596C11.58 10.7596 11.24 10.4196 11.24 9.99965V6.89965C11.24 6.47965 11.58 6.13965 12 6.13965C12.42 6.13965 12.76 6.47965 12.76 6.89965V9.99965C12.75 10.4196 12.41 10.7596 12 10.7596Z" fill="#369AC1"/>
<path d="M14.83 20.01C14.41 21.17 13.3 22 12 22C11.21 22 10.43 21.68 9.88 21.11C9.56 20.81 9.32 20.41 9.18 20C9.31 20.02 9.44 20.03 9.58 20.05C9.81 20.08 10.05 20.11 10.29 20.13C10.86 20.18 11.44 20.21 12.02 20.21C12.59 20.21 13.16 20.18 13.72 20.13C13.93 20.11 14.14 20.1 14.34 20.07C14.5 20.05 14.66 20.03 14.83 20.01Z" fill="#369AC1"/>
</svg>
