<svg width="20" height="20" viewBox="0 0 20 20" fill="none" xmlns="http://www.w3.org/2000/svg">
<path d="M9.35596 2.35547C9.75672 2.13687 10.2433 2.13687 10.644 2.35547L10.646 2.35645L15.8696 5.17188V5.17285C16.0842 5.28961 16.2251 5.51605 16.2251 5.7998C16.2251 6.04798 16.1173 6.25245 15.9468 6.37793L15.8696 6.42676L10.646 9.24316L10.644 9.24414C10.4443 9.35308 10.218 9.4082 9.99951 9.4082C9.78118 9.40814 9.55556 9.35302 9.35596 9.24414L9.354 9.24316L4.12939 6.42676H4.13037C3.91734 6.31093 3.77492 6.07723 3.7749 5.7998C3.7749 5.51614 3.91494 5.28866 4.12939 5.17188L9.354 2.35645L9.35596 2.35547Z" fill="#7B83B6" stroke="#7B83B6"/>
<path d="M2.49683 8.7002C2.69424 8.57799 2.94287 8.56285 3.16772 8.6709V8.67188L8.03687 11.1064C8.57233 11.371 8.90649 11.911 8.90015 12.5195V17.1162C8.90015 17.3639 8.77825 17.5821 8.57495 17.7051L8.573 17.7061C8.4616 17.7738 8.33551 17.8076 8.20874 17.8076C8.10081 17.8076 7.99433 17.7829 7.89917 17.7354H7.89819L3.04077 15.3027C2.50097 15.0289 2.16675 14.4846 2.16675 13.8828V9.29102C2.16685 9.04985 2.28401 8.83502 2.49683 8.7002Z" fill="#7B83B6" stroke="#7B83B6"/>
<path d="M16.8403 8.66797C17.0403 8.56358 17.286 8.5706 17.5044 8.70117C17.7167 8.83609 17.8335 9.05107 17.8335 9.29199V13.8838C17.8334 14.4925 17.5 15.0284 16.9595 15.3027L12.1011 17.7363C12.006 17.7838 11.8994 17.8086 11.7915 17.8086C11.6646 17.8085 11.5378 17.7739 11.4263 17.7061H11.4253C11.222 17.5831 11.1002 17.3648 11.1001 17.1172V12.5254C11.1001 11.9158 11.4343 11.3786 11.9761 11.1045L11.9751 11.1035L16.8325 8.67188L16.8403 8.66797Z" fill="#7B83B6" stroke="#7B83B6"/>
</svg>
