<svg width="56" height="56" viewBox="0 0 56 56" fill="none" xmlns="http://www.w3.org/2000/svg">
<path opacity="0.4" d="M28.0018 5.16699C29.6898 5.16705 31.35 5.52834 32.5868 6.22266L32.5887 6.22461L45.0487 13.1309C46.3403 13.8462 47.5309 15.1084 48.4139 16.5928L28.0009 28.4023L7.58777 16.5928C8.47081 15.1082 9.66228 13.8463 10.954 13.1309L23.4139 6.22461L23.4159 6.22266C24.6528 5.52827 26.3137 5.16699 28.0018 5.16699Z" fill="#959FC5" stroke="#959FC5"/>
<path opacity="0.6" d="M27.501 29.2666V50.8213C25.9886 50.757 24.5304 50.4029 23.416 49.7773L23.4141 49.7754L10.9541 42.8691L10.708 42.7256C9.48682 41.9776 8.35773 40.7487 7.5166 39.3223C6.6194 37.8007 6.07824 36.1027 6.07812 34.6035V21.3965C6.07812 20.1547 6.4628 18.781 7.11035 17.4707L27.501 29.2666Z" fill="#959FC5" stroke="#959FC5"/>
<path d="M50.4248 21.3964V34.603C50.4248 37.823 48.1148 41.743 45.2915 43.3064L32.8315 50.213C31.5015 50.9597 29.7515 51.333 28.0015 51.333V28.9797L49.0948 16.7764C49.9115 18.2697 50.4248 19.903 50.4248 21.3964Z" fill="#959FC5"/>
</svg>
