<svg width="24" height="24" viewBox="0 0 24 24" fill="none" xmlns="http://www.w3.org/2000/svg">
<path opacity="0.4" d="M20.1 6.93998C20.1 7.47998 19.81 7.96995 19.35 8.21995L17.61 9.15995L16.13 9.94999L13.06 11.61C12.73 11.79 12.37 11.88 12 11.88C11.63 11.88 11.27 11.79 10.94 11.61L4.64999 8.21995C4.18999 7.96995 3.89999 7.47998 3.89999 6.93998C3.89999 6.39998 4.18999 5.90995 4.64999 5.65995L6.62 4.59996L8.19 3.74998L10.94 2.27C11.6 1.91 12.4 1.91 13.06 2.27L19.35 5.65995C19.81 5.90995 20.1 6.39998 20.1 6.93998Z" fill="#369AC1"/>
<path opacity="0.4" d="M9.89999 12.7904L4.04999 9.86038C3.59999 9.63038 3.07999 9.66037 2.64999 9.92037C2.21999 10.1804 1.97 10.6404 1.97 11.1404V16.6704C1.97 17.6304 2.49999 18.4904 3.35999 18.9204L9.20999 21.8404C9.40999 21.9404 9.63001 21.9904 9.85001 21.9904C10.11 21.9904 10.37 21.9204 10.6 21.7704C11.03 21.5104 11.28 21.0504 11.28 20.5504V15.0204C11.29 14.0804 10.76 13.2204 9.89999 12.7904Z" fill="#369AC1"/>
<path opacity="0.4" d="M22.03 11.1497V16.6796C22.03 17.6296 21.5 18.4896 20.64 18.9196L14.79 21.8496C14.59 21.9496 14.37 21.9996 14.15 21.9996C13.89 21.9996 13.63 21.9297 13.39 21.7797C12.97 21.5197 12.71 21.0596 12.71 20.5596V15.0396C12.71 14.0796 13.24 13.2196 14.1 12.7896L16.25 11.7196L17.75 10.9696L19.95 9.86964C20.4 9.63964 20.92 9.65964 21.35 9.92964C21.77 10.1896 22.03 10.6497 22.03 11.1497Z" fill="#369AC1"/>
<path d="M17.61 9.15997L16.13 9.95001L6.62 4.59998L8.19 3.75L17.37 8.92999C17.47 8.98999 17.55 9.06997 17.61 9.15997Z" fill="#369AC1"/>
<path d="M17.75 10.9697V13.2397C17.75 13.6497 17.41 13.9897 17 13.9897C16.59 13.9897 16.25 13.6497 16.25 13.2397V11.7197L17.75 10.9697Z" fill="#369AC1"/>
</svg>
