<svg width="28" height="28" viewBox="0 0 28 28" fill="none" xmlns="http://www.w3.org/2000/svg">
<g filter="url(#filter0_d_166_3913)">
<path d="M14 20C19.5228 20 24 15.5228 24 10C24 4.47715 19.5228 0 14 0C8.47715 0 4 4.47715 4 10C4 15.5228 8.47715 20 14 20Z" fill="#FFB703"/>
</g>
<path d="M14 17.1777C17.9642 17.1777 21.1777 13.9642 21.1777 10C21.1777 6.03585 17.9642 2.82227 14 2.82227C10.0358 2.82227 6.82227 6.03585 6.82227 10C6.82227 13.9642 10.0358 17.1777 14 17.1777Z" fill="#FFCC29"/>
<path d="M13.9999 17.1777C17.9641 17.1777 21.1777 13.9642 21.1777 10C21.1777 6.03585 17.9641 2.82227 13.9999 2.82227C10.0358 2.82227 6.8222 6.03585 6.8222 10C6.8222 13.9642 10.0358 17.1777 13.9999 17.1777Z" stroke="#F99300" stroke-width="1.38875" stroke-miterlimit="10"/>
<path d="M17.3325 18.3025C18.9733 17.6384 20.3784 16.4994 21.3677 15.0314C22.357 13.5635 22.8854 11.8336 22.8852 10.0635" stroke="#FFCC29" stroke-width="0.833164" stroke-miterlimit="10" stroke-linecap="round"/>
<path d="M9.55707 2.30509C10.9072 1.52345 12.44 1.11294 14 1.11524" stroke="#FFCC29" stroke-width="0.833164" stroke-miterlimit="10" stroke-linecap="round"/>
<path d="M6.52997 5.18633C6.96271 4.51597 7.48351 3.90675 8.07841 3.375" stroke="#FFCC29" stroke-width="0.833164" stroke-miterlimit="10" stroke-linecap="round"/>
<path d="M6.19619 14.2516C5.4847 12.9476 5.11286 11.4855 5.11494 10" stroke="#FFCC29" stroke-width="0.833164" stroke-miterlimit="10" stroke-linecap="round"/>
<path d="M15.8568 9.28404L14.1049 6.7485C14.0932 6.7315 14.0776 6.71759 14.0594 6.70799C14.0411 6.69838 14.0208 6.69336 14.0002 6.69336C13.9796 6.69336 13.9593 6.69838 13.941 6.70799C13.9228 6.71759 13.9072 6.7315 13.8955 6.7485L12.1436 9.28404C12.1268 9.3085 12.102 9.32633 12.0735 9.33446C12.0449 9.34259 12.0145 9.34051 11.9873 9.32857L9.50137 8.22428C9.47918 8.21453 9.45467 8.21129 9.4307 8.21496C9.40674 8.21862 9.38431 8.22903 9.36604 8.24496C9.34777 8.2609 9.33441 8.2817 9.32753 8.30495C9.32064 8.32819 9.32051 8.35291 9.32716 8.37623L10.7686 13.3122C10.7763 13.3386 10.7923 13.3619 10.8144 13.3785C10.8364 13.395 10.8633 13.404 10.8908 13.404H17.11C17.1375 13.404 17.1644 13.395 17.1864 13.3785C17.2085 13.3619 17.2245 13.3386 17.2322 13.3122L18.6736 8.37623C18.6803 8.35291 18.6802 8.32819 18.6733 8.30495C18.6664 8.2817 18.653 8.2609 18.6348 8.24496C18.6165 8.22903 18.5941 8.21862 18.5701 8.21496C18.5461 8.21129 18.5216 8.21453 18.4994 8.22428L16.0135 9.32857C15.9862 9.34038 15.9558 9.3424 15.9272 9.33428C15.8987 9.32617 15.8738 9.30841 15.8568 9.28404Z" fill="#F99300"/>
<defs>
<filter id="filter0_d_166_3913" x="0" y="0" width="28" height="28" filterUnits="userSpaceOnUse" color-interpolation-filters="sRGB">
<feFlood flood-opacity="0" result="BackgroundImageFix"/>
<feColorMatrix in="SourceAlpha" type="matrix" values="0 0 0 0 0 0 0 0 0 0 0 0 0 0 0 0 0 0 127 0" result="hardAlpha"/>
<feOffset dy="4"/>
<feGaussianBlur stdDeviation="2"/>
<feComposite in2="hardAlpha" operator="out"/>
<feColorMatrix type="matrix" values="0 0 0 0 0.900765 0 0 0 0 0.695369 0 0 0 0 0.03891 0 0 0 0.15 0"/>
<feBlend mode="normal" in2="BackgroundImageFix" result="effect1_dropShadow_166_3913"/>
<feBlend mode="normal" in="SourceGraphic" in2="effect1_dropShadow_166_3913" result="shape"/>
</filter>
</defs>
</svg>
