<?xml version="1.0" encoding="utf-8"?>
<svg width="28" height="28" viewBox="0 0 28 28" fill="none" xmlns="http://www.w3.org/2000/svg" xmlns:bx="https://boxy-svg.com"><g filter="url(#filter0_d_166_3913)" transform="matrix(1, 0, 0, 1, 0, 4)"><path d="M14 20C19.5228 20 24 15.5228 24 10C24 4.47715 19.5228 0 14 0C8.47715 0 4 4.47715 4 10C4 15.5228 8.47715 20 14 20Z" fill="#FFB703"/></g><path d="M 14 21.178 C 17.964 21.178 21.178 17.964 21.178 14 C 21.178 10.036 17.964 6.822 14 6.822 C 10.036 6.822 6.822 10.036 6.822 14 C 6.822 17.964 10.036 21.178 14 21.178 Z" fill="#FFCC29"/><path d="M 14 21.178 C 17.964 21.178 21.178 17.964 21.178 14 C 21.178 10.036 17.964 6.822 14 6.822 C 10.036 6.822 6.822 10.036 6.822 14 C 6.822 17.964 10.036 21.178 14 21.178 Z" stroke="#F99300" stroke-width="1.38875" stroke-miterlimit="10"/><path d="M 17.333 22.303 C 18.973 21.638 20.378 20.499 21.368 19.031 C 22.357 17.564 22.885 15.834 22.885 14.064" stroke="#FFCC29" stroke-width="0.833164" stroke-miterlimit="10" stroke-linecap="round"/><path d="M 9.557 6.305 C 10.907 5.523 12.44 5.113 14 5.115" stroke="#FFCC29" stroke-width="0.833164" stroke-miterlimit="10" stroke-linecap="round"/><path d="M 6.53 9.186 C 6.963 8.516 7.484 7.907 8.078 7.375" stroke="#FFCC29" stroke-width="0.833164" stroke-miterlimit="10" stroke-linecap="round"/><path d="M 6.196 18.252 C 5.485 16.948 5.113 15.486 5.115 14" stroke="#FFCC29" stroke-width="0.833164" stroke-miterlimit="10" stroke-linecap="round"/><path d="M 15.857 13.284 L 14.105 10.749 C 14.093 10.732 14.078 10.718 14.059 10.708 C 14.041 10.698 14.021 10.693 14 10.693 C 13.98 10.693 13.959 10.698 13.941 10.708 C 13.923 10.718 13.907 10.732 13.896 10.749 L 12.144 13.284 C 12.127 13.309 12.102 13.326 12.074 13.334 C 12.045 13.343 12.015 13.341 11.987 13.329 L 9.501 12.224 C 9.479 12.215 9.455 12.211 9.431 12.215 C 9.407 12.219 9.384 12.229 9.366 12.245 C 9.348 12.261 9.334 12.282 9.328 12.305 C 9.321 12.328 9.321 12.353 9.327 12.376 L 10.769 17.312 C 10.776 17.339 10.792 17.362 10.814 17.379 C 10.836 17.395 10.863 17.404 10.891 17.404 L 17.11 17.404 C 17.138 17.404 17.164 17.395 17.186 17.379 C 17.209 17.362 17.225 17.339 17.232 17.312 L 18.674 12.376 C 18.68 12.353 18.68 12.328 18.673 12.305 C 18.666 12.282 18.653 12.261 18.635 12.245 C 18.617 12.229 18.594 12.219 18.57 12.215 C 18.546 12.211 18.522 12.215 18.499 12.224 L 16.014 13.329 C 15.986 13.34 15.956 13.342 15.927 13.334 C 15.899 13.326 15.874 13.308 15.857 13.284 Z" fill="#F99300"/><defs><filter id="filter0_d_166_3913" x="0" y="0" width="28" height="28" filterUnits="userSpaceOnUse" color-interpolation-filters="sRGB"><feFlood flood-opacity="0" result="BackgroundImageFix"/><feColorMatrix in="SourceAlpha" type="matrix" values="0 0 0 0 0 0 0 0 0 0 0 0 0 0 0 0 0 0 127 0" result="hardAlpha"/><feOffset dy="4"/><feGaussianBlur stdDeviation="2"/><feComposite in2="hardAlpha" operator="out"/><feColorMatrix type="matrix" values="0 0 0 0 0.900765 0 0 0 0 0.695369 0 0 0 0 0.03891 0 0 0 0.15 0"/><feBlend mode="normal" in2="BackgroundImageFix" result="effect1_dropShadow_166_3913"/><feBlend mode="normal" in="SourceGraphic" in2="effect1_dropShadow_166_3913" result="shape"/></filter><bx:export><bx:file format="svg"/></bx:export></defs></svg>