<svg width="20" height="21" viewBox="0 0 20 21" fill="none" xmlns="http://www.w3.org/2000/svg">
<path d="M11.4416 2.98281L12.9083 5.91615C13.1083 6.32448 13.6416 6.71615 14.0916 6.79115L16.7499 7.23281C18.4499 7.51615 18.8499 8.74948 17.6249 9.96615L15.5583 12.0328C15.2083 12.3828 15.0166 13.0578 15.1249 13.5411L15.7166 16.0995C16.1833 18.1245 15.1083 18.9078 13.3166 17.8495L10.8249 16.3745C10.3749 16.1078 9.63326 16.1078 9.17492 16.3745L6.68326 17.8495C4.89992 18.9078 3.81659 18.1161 4.28326 16.0995L4.87492 13.5411C4.98326 13.0578 4.79159 12.3828 4.44159 12.0328L2.37492 9.96615C1.15826 8.74948 1.54992 7.51615 3.24992 7.23281L5.90826 6.79115C6.34992 6.71615 6.88326 6.32448 7.08326 5.91615L8.54992 2.98281C9.34992 1.39115 10.6499 1.39115 11.4416 2.98281Z" stroke="#FF9D61" stroke-width="1.5" stroke-linecap="round" stroke-linejoin="round"/>
</svg>
