<svg width="151" height="129" viewBox="0 0 151 129" fill="none" xmlns="http://www.w3.org/2000/svg">
<path d="M172.816 18.8855L176.206 -2.91191C176.575 -5.31559 175.374 -7.69214 173.191 -8.79908L153.533 -18.7702L145.564 -39.3443C144.684 -41.6173 142.441 -43.0566 140.007 -42.9243L117.975 -41.7298L100.812 -55.5629C98.9164 -57.0998 96.2009 -57.2062 94.2164 -55.8933L75.7306 -43.8285L53.9325 -47.2179C51.5153 -47.5955 49.1654 -46.3767 48.056 -44.2051L38.0866 -24.5366L17.5117 -16.5675C16.4072 -16.1372 15.4665 -15.3697 14.8233 -14.3741C14.1802 -13.3785 13.8672 -12.2055 13.929 -11.0218L15.1232 11.0094L1.29176 28.1831C-0.23425 30.0762 -0.363485 32.7389 0.961166 34.7783L13.0128 53.2547L9.62291 75.0521C9.24285 77.4581 10.4664 79.8299 12.6358 80.9283L32.3024 90.886L40.2714 111.46C41.1515 113.733 43.3856 115.186 45.8196 115.053L67.8516 113.859L85.0234 127.679C85.9469 128.428 87.0851 128.864 88.2729 128.923C89.4608 128.982 90.6366 128.661 91.6299 128.007L110.098 115.969L131.897 119.358C132.577 119.463 133.27 119.442 133.943 119.298C135.56 118.95 137.001 117.892 137.782 116.332L147.742 96.6768L168.317 88.7077C169.426 88.2782 170.37 87.5093 171.015 86.5108C171.66 85.5124 171.973 84.3355 171.909 83.1486L170.714 61.1174L184.537 43.9571C186.072 42.0507 186.193 39.4012 184.868 37.3618L172.816 18.8855Z" fill="#FFCCA9" fill-opacity="0.32"/>
</svg>
