<svg width="21" height="20" viewBox="0 0 21 20" fill="none" xmlns="http://www.w3.org/2000/svg">
<path d="M14.6333 5.1416C16.3 6.29993 17.45 8.1416 17.6833 10.2666" stroke="white" stroke-width="1.5" stroke-linecap="round" stroke-linejoin="round"/>
<path d="M3.40833 10.3086C3.62499 8.19193 4.75833 6.35026 6.40833 5.18359" stroke="white" stroke-width="1.5" stroke-linecap="round" stroke-linejoin="round"/>
<path d="M7.32501 17.4502C8.29168 17.9419 9.39168 18.2169 10.55 18.2169C11.6667 18.2169 12.7167 17.9669 13.6583 17.5085" stroke="white" stroke-width="1.5" stroke-linecap="round" stroke-linejoin="round"/>
<path d="M10.55 6.41654C11.8295 6.41654 12.8667 5.37933 12.8667 4.09987C12.8667 2.82041 11.8295 1.7832 10.55 1.7832C9.27054 1.7832 8.23334 2.82041 8.23334 4.09987C8.23334 5.37933 9.27054 6.41654 10.55 6.41654Z" stroke="white" stroke-width="1.5" stroke-linecap="round" stroke-linejoin="round"/>
<path d="M4.52501 16.6001C5.80447 16.6001 6.84168 15.5629 6.84168 14.2835C6.84168 13.004 5.80447 11.9668 4.52501 11.9668C3.24555 11.9668 2.20834 13.004 2.20834 14.2835C2.20834 15.5629 3.24555 16.6001 4.52501 16.6001Z" stroke="white" stroke-width="1.5" stroke-linecap="round" stroke-linejoin="round"/>
<path d="M16.475 16.6001C17.7545 16.6001 18.7917 15.5629 18.7917 14.2835C18.7917 13.004 17.7545 11.9668 16.475 11.9668C15.1955 11.9668 14.1583 13.004 14.1583 14.2835C14.1583 15.5629 15.1955 16.6001 16.475 16.6001Z" stroke="white" stroke-width="1.5" stroke-linecap="round" stroke-linejoin="round"/>
</svg>
