<svg width="20" height="20" viewBox="0 0 20 20" fill="none" xmlns="http://www.w3.org/2000/svg">
<path d="M12.3742 16.0478C13.055 16.0478 13.5617 15.5094 14.1725 14.8611C14.3542 14.6677 14.5608 14.4486 14.7975 14.2111L16.4358 12.5677C17.5258 11.4736 18.125 10.8719 18.125 9.99776C18.125 9.12359 17.5258 8.52275 16.4375 7.43025L16.4358 7.42858L14.7975 5.78527C14.6175 5.60444 14.4542 5.43608 14.3042 5.28275C13.4208 4.37442 12.7825 3.71861 11.8658 4.04195C10.8641 4.39445 10.8409 5.71024 10.8842 6.64941C10.8017 6.64774 10.72 6.64611 10.6392 6.64444C9.66833 6.62361 8.66334 6.60194 7.67668 6.78694C5.62084 7.17361 4.08087 8.19525 3.0992 9.82442C2.2867 11.1719 1.875 12.9144 1.875 15.0028C1.875 15.2361 2.00496 15.4503 2.2133 15.5578C2.4208 15.6653 2.67082 15.6478 2.86165 15.5128L3.12085 15.3286C4.16752 14.5836 5.15582 13.8794 6.31665 13.5628C7.52415 13.2319 8.89416 13.2736 10.2192 13.3136C10.4392 13.3203 10.6625 13.3269 10.8858 13.3319C10.8417 14.2719 10.86 15.6011 11.8667 15.9553C12.0475 16.0194 12.2159 16.0486 12.3742 16.0486V16.0478ZM15.5508 8.31111L15.5525 8.31278C16.3775 9.14111 16.8758 9.64109 16.8758 9.99776C16.8758 10.3544 16.3783 10.8553 15.5533 11.6836L13.9133 13.3286C13.6633 13.5794 13.4508 13.8053 13.2633 14.0044C12.605 14.7036 12.4458 14.8302 12.2875 14.7777C12.2042 14.7044 12.0784 14.3919 12.1484 13.1378C12.1575 12.9744 12.165 12.8328 12.165 12.7144C12.165 12.3694 11.885 12.0894 11.54 12.0894C11.1225 12.0894 10.7017 12.0769 10.2567 12.0636C8.84001 12.0211 7.37497 11.9769 5.98747 12.3569C4.93913 12.6428 4.03497 13.1778 3.18164 13.7594C3.48997 10.4778 5.07587 8.54775 7.90837 8.01525C8.76753 7.85359 9.70586 7.87442 10.6134 7.89359C10.9175 7.90026 11.2317 7.90694 11.54 7.90694C11.885 7.90694 12.165 7.62694 12.165 7.28194C12.165 7.16444 12.1575 7.02276 12.1484 6.8586C12.0792 5.60526 12.2042 5.29275 12.2875 5.21858C12.4533 5.17108 12.8975 5.62693 13.4092 6.1536C13.5625 6.3111 13.7292 6.48276 13.9133 6.66776L15.5517 8.31111H15.5508Z" fill="white"/>
</svg>
