<svg width="25" height="24" viewBox="0 0 25 24" fill="none" xmlns="http://www.w3.org/2000/svg">
<path d="M3.26001 11.2202V15.7102C3.26001 20.2002 5.06001 22.0002 9.55001 22.0002H14.94C19.43 22.0002 21.23 20.2002 21.23 15.7102V11.2202" stroke="#959FC5" stroke-width="1.5" stroke-linecap="round" stroke-linejoin="round"/>
<path d="M12.25 12C14.08 12 15.43 10.51 15.25 8.68L14.59 2H9.91999L9.24999 8.68C9.06999 10.51 10.42 12 12.25 12Z" stroke="#959FC5" stroke-width="1.5" stroke-linecap="round" stroke-linejoin="round"/>
<path d="M18.56 12C20.58 12 22.06 10.36 21.86 8.35L21.58 5.6C21.22 3 20.22 2 17.6 2H14.55L15.25 9.01C15.42 10.66 16.91 12 18.56 12Z" stroke="#959FC5" stroke-width="1.5" stroke-linecap="round" stroke-linejoin="round"/>
<path d="M5.89 12C7.54 12 9.03 10.66 9.19 9.01L9.41 6.8L9.89001 2H6.84C4.22001 2 3.22 3 2.86 5.6L2.59 8.35C2.39 10.36 3.87 12 5.89 12Z" stroke="#959FC5" stroke-width="1.5" stroke-linecap="round" stroke-linejoin="round"/>
<path d="M12.25 17C10.58 17 9.75 17.83 9.75 19.5V22H14.75V19.5C14.75 17.83 13.92 17 12.25 17Z" stroke="#959FC5" stroke-width="1.5" stroke-linecap="round" stroke-linejoin="round"/>
</svg>
