<svg width="17" height="16" viewBox="0 0 17 16" fill="none" xmlns="http://www.w3.org/2000/svg">
<path d="M8.3335 1.83301C11.7305 1.83318 14.4995 4.60292 14.4995 8C14.4993 11.3969 11.7304 14.1658 8.3335 14.166C4.93641 14.166 2.16668 11.397 2.1665 8C2.1665 4.60281 4.9363 1.83301 8.3335 1.83301ZM11.8735 5.40625C11.4849 5.01765 10.8481 5.01765 10.4595 5.40625L7.38623 8.47949L6.20654 7.2998L6.13135 7.23145C5.76585 6.93364 5.23421 6.93375 4.86865 7.23145L4.79248 7.2998C4.40443 7.6883 4.40442 8.32439 4.79248 8.71289L6.6792 10.5996C6.86517 10.7856 7.11888 10.8925 7.38623 10.8926C7.65368 10.8926 7.90723 10.7856 8.09326 10.5996L11.8735 6.82031L11.8794 6.81348C12.2566 6.42306 12.2652 5.79802 11.8735 5.40625Z" fill="white" stroke="white"/>
</svg>
