<svg width="17" height="16" viewBox="0 0 17 16" fill="none" xmlns="http://www.w3.org/2000/svg">
<path d="M4.45996 1.83301H9.37988C9.45392 1.83301 9.49997 1.88598 9.5 1.94629V7.48633C9.5 7.89019 9.17046 8.21973 8.7666 8.21973H2.66699C2.57647 8.21973 2.5 8.14326 2.5 8.05273V3.79297C2.50002 2.70914 3.37613 1.83303 4.45996 1.83301Z" fill="white" stroke="white"/>
<path d="M11.167 8.66602C11.167 9.86205 12.137 10.8328 13.333 10.833H14.833V11.333C14.833 12.013 14.3841 12.5835 13.7656 12.7686C13.5081 11.6627 12.5149 10.833 11.333 10.833C10.1282 10.8332 9.11777 11.6949 8.88477 12.833H8.44922C8.21624 11.6948 7.20499 10.833 6 10.833C4.81798 10.833 3.82385 11.6626 3.56641 12.7686C2.94853 12.5831 2.5 12.0125 2.5 11.333V10C2.5 9.90948 2.57647 9.83301 2.66699 9.83301H9C10.1961 9.83301 11.167 8.86216 11.167 7.66602V8.66602ZM11.333 3.83301H11.8936C12.1538 3.83308 12.3982 3.95697 12.5576 4.16406L12.6211 4.25781L12.7979 4.56836C11.8608 4.80701 11.1671 5.65498 11.167 6.66602V4C11.167 3.90958 11.2426 3.83319 11.333 3.83301Z" fill="white" stroke="white"/>
<path d="M5.99976 12.5C6.45988 12.5 6.83356 12.8729 6.83374 13.333C6.83374 13.7932 6.45999 14.167 5.99976 14.167C5.53967 14.1668 5.16675 13.7931 5.16675 13.333C5.16692 12.873 5.53978 12.5002 5.99976 12.5Z" fill="white" stroke="white"/>
<path d="M11.333 12.5C11.7931 12.5 12.1668 12.8729 12.167 13.333C12.167 13.7932 11.7932 14.167 11.333 14.167C10.8729 14.1668 10.5 13.7931 10.5 13.333C10.5002 12.873 10.873 12.5002 11.333 12.5Z" fill="white" stroke="white"/>
<path d="M15.3334 8.35333V9.33333H13.3334C12.9667 9.33333 12.6667 9.03333 12.6667 8.66667V6.66667C12.6667 6.3 12.9667 6 13.3334 6H14.1934L15.1601 7.69333C15.2734 7.89333 15.3334 8.12 15.3334 8.35333Z" fill="white"/>
</svg>
